<svg width="19" height="19" viewBox="0 0 19 19" fill="none" xmlns="http://www.w3.org/2000/svg">
<path d="M17.4431 18.2498L11.1431 11.9498C10.6431 12.3498 10.0681 12.6665 9.41811 12.8998C8.76811 13.1332 8.07644 13.2498 7.34311 13.2498C5.52644 13.2498 3.98894 12.6207 2.73061 11.3623C1.47228 10.104 0.843109 8.56648 0.843109 6.74982C0.843109 4.93315 1.47228 3.39565 2.73061 2.13732C3.98894 0.878984 5.52644 0.249817 7.34311 0.249817C9.15978 0.249817 10.6973 0.878984 11.9556 2.13732C13.2139 3.39565 13.8431 4.93315 13.8431 6.74982C13.8431 7.48315 13.7264 8.17482 13.4931 8.82482C13.2598 9.47482 12.9431 10.0498 12.5431 10.5498L18.8431 16.8498L17.4431 18.2498ZM7.34311 11.2498C8.59311 11.2498 9.65561 10.8123 10.5306 9.93732C11.4056 9.06232 11.8431 7.99982 11.8431 6.74982C11.8431 5.49982 11.4056 4.43732 10.5306 3.56232C9.65561 2.68732 8.59311 2.24982 7.34311 2.24982C6.09311 2.24982 5.03061 2.68732 4.15561 3.56232C3.28061 4.43732 2.84311 5.49982 2.84311 6.74982C2.84311 7.99982 3.28061 9.06232 4.15561 9.93732C5.03061 10.8123 6.09311 11.2498 7.34311 11.2498Z" fill="url(#paint0_linear_5_12)"/>
<defs>
<linearGradient id="paint0_linear_5_12" x1="17.9431" y1="0.249817" x2="-1.28792" y2="16.2264" gradientUnits="userSpaceOnUse">
<stop stop-color="#14AAFF"/>
<stop offset="1" stop-color="#6D14FF" stop-opacity="0.828947"/>
</linearGradient>
</defs>
</svg>
